<svg width="49" height="39" viewBox="0 0 49 39" fill="none" xmlns="http://www.w3.org/2000/svg">
<path d="M44.1 0H4.9C3.60044 0 2.3541 0.513614 1.43518 1.42785C0.516248 2.34209 0 3.58207 0 4.875V34.125C0 35.4179 0.516248 36.6579 1.43518 37.5721C2.3541 38.4864 3.60044 39 4.9 39H44.1C45.3996 39 46.6459 38.4864 47.5648 37.5721C48.4838 36.6579 49 35.4179 49 34.125V4.875C49 3.58207 48.4838 2.34209 47.5648 1.42785C46.6459 0.513614 45.3996 0 44.1 0ZM44.1 11.4562L24.5 24.4579L4.9 11.4562V5.59894L24.5 18.5981L44.1 5.59894V11.4562Z" fill="white"/>
</svg>
